<?xml version="1.0" encoding="utf-8"?>
<!-- Generator: Adobe Illustrator 21.1.0, SVG Export Plug-In . SVG Version: 6.00 Build 0)  -->
<svg version="1.1" id="Isolation_Mode" xmlns="http://www.w3.org/2000/svg" xmlns:xlink="http://www.w3.org/1999/xlink" x="0px"
	 y="0px" viewBox="0 0 182.3 181" style="enable-background:new 0 0 182.3 181;" xml:space="preserve">
<style type="text/css">
	.st0{fill:#C9C9C9;}
	.st1{fill:#ED145B;}
</style>
<path class="st0" d="M91.3,179.5c-7.7,0-14.3-4.7-16.8-11.9l-2.7-7.6c-5.8-1.6-11.3-3.8-16.4-6.7l-7.3,3.4c-2.5,1.2-5.1,1.8-7.7,1.8
	c-6,0-11.8-3.2-15.1-8.5c-3.3-5.2-3.6-11.5-1-17.1l3.4-7.3c-3-5.2-5.2-10.7-6.8-16.4l-7.8-2.7c-7.3-2.6-12-9.3-12-17
	c0-7.6,4.6-14.1,11.7-16.6l7.4-2.8c1.6-5.7,3.5-11,5.7-15.7l-2.9-8.1C20.6,41,21.1,35,24.2,30c3.5-5.5,9.7-9,16.1-9
	c2.7,0,5.3,0.6,7.8,1.8l8.4,4c4.7-2.6,9.7-4.6,14.8-6l3.2-8.9C77.1,4.7,83.7,0,91.3,0c7.6,0,14.3,4.7,16.8,11.9l3.3,9.2
	c4.9,1.5,9.7,3.5,14.2,5.9l8.9-4.2c2.5-1.2,5.1-1.8,7.7-1.8c6,0,11.8,3.2,15.1,8.4c3.3,5.2,3.7,11.5,1,17.1l-4.2,8.9
	c2.5,4.5,4.5,9.3,6,14.2l9.2,3.3c7.2,2.6,11.9,9.2,11.9,16.8c0,7.7-4.7,14.3-11.9,16.8l-8.8,3.1c-1.4,5.2-3.5,10.2-6,15l3.9,8.3
	c2.7,5.6,2.3,11.9-1,17.1c-3.3,5.2-9.1,8.4-15.1,8.4h0c-2.6,0-5.2-0.6-7.7-1.8l-7.8-3.7c-5,2.9-10.3,5.1-15.7,6.7l-2.8,8
	C105.6,174.8,99,179.5,91.3,179.5 M55.6,144.2c0.8,0,1.5,0.2,2.2,0.6c5.6,3.4,11.8,5.9,18.2,7.5c1.4,0.3,2.6,1.4,3,2.7l3.5,9.8
	c1.6,4.6,5.6,6.2,8.8,6.2c3.2,0,7.1-1.6,8.8-6.2l3.6-10.1c0.5-1.3,1.6-2.4,3-2.7c6.2-1.6,12.1-4.1,17.6-7.5c1.2-0.8,2.8-0.8,4.1-0.2
	l9.9,4.7c4.4,2.1,9.4,0.5,11.9-3.5c1-1.6,2.4-4.8,0.5-8.9l-4.7-9.9c0-0.1-0.2-0.4-0.2-0.5c-0.5-1.2-0.4-2.7,0.2-3.9
	c3.1-5.3,5.4-10.9,6.8-16.8c0.3-1.3,1.3-2.4,2.6-3c0.3-0.1,0.5-0.2,0.7-0.3l10.4-3.7c4.6-1.6,6.2-5.6,6.2-8.8c0-3.2-1.6-7.1-6.2-8.8
	L156,77.3c-0.4-0.1-0.7-0.3-1.1-0.5c-1.2-0.5-2.2-1.6-2.5-2.9c-1.5-5.6-3.8-11.1-6.8-16.1c-0.7-1.1-0.8-2.5-0.3-3.7
	c0.2-0.5,0.3-0.9,0.6-1.3l4.7-9.9c1.9-4,0.5-7.3-0.5-8.9c-2.5-4-7.6-5.6-11.9-3.5l-9.9,4.7c-0.4,0.2-0.9,0.4-1.4,0.6
	c-1.2,0.5-2.6,0.3-3.7-0.3c-5-3-10.5-5.3-16.1-6.7c-1.3-0.3-2.3-1.2-2.8-2.4c-0.2-0.5-0.4-0.8-0.5-1.3l-3.7-10.4
	c-1.6-4.6-5.6-6.2-8.8-6.2c-3.2,0-7.1,1.6-8.8,6.2l-3.7,10.4c-0.1,0.2-0.2,0.5-0.3,0.7c-0.5,1.2-1.7,2.3-3,2.7
	c-5.9,1.4-11.5,3.7-16.8,6.8c-1.2,0.7-2.6,0.8-3.9,0.2c-0.2-0.1-0.4-0.2-0.6-0.2l-9.9-4.7c-4.6-2.2-10.3-0.2-13,4
	c-1,1.5-2.3,4.6-0.5,8.4c0.1,0.1,0.1,0.3,0.2,0.4l3.6,9.9c0.2,0.5,0.3,1,0.3,1.4c0,0.7-0.2,1.3-0.4,1.9c-2.6,5.2-4.8,11.3-6.5,17.9
	c-0.3,1.3-1.3,2.4-2.6,2.9L15.8,81c-3.9,1.4-6.1,4.6-6.1,8.6c0,3.2,1.7,7.3,6.3,9l10,3.5c1.4,0.5,2.4,1.6,2.7,3.1
	c1.5,6.3,4,12.5,7.5,18.2c0.7,1.2,0.8,2.7,0.2,4l-4.4,9.3c-1.9,4-0.5,7.3,0.5,8.9c2.5,4,7.6,5.6,11.9,3.5l9.3-4.4
	C54.3,144.3,55,144.2,55.6,144.2"/>
<path class="st1" d="M91.2,126.9c-19.8,0-35.9-16.1-35.9-35.9c0-19.8,16.1-35.9,35.9-35.9c19.8,0,35.9,16.1,35.9,35.9
	C127,110.8,110.9,126.9,91.2,126.9 M91.2,63.7C76.1,63.7,63.8,76,63.8,91c0,15.1,12.3,27.3,27.3,27.3c15.1,0,27.3-12.3,27.3-27.3
	C118.5,76,106.2,63.7,91.2,63.7"/>
<path class="st0" d="M91.2,146.4c-30.5,0-55.3-24.8-55.3-55.3c0-30.5,24.8-55.3,55.3-55.3c30.5,0,55.3,24.8,55.3,55.3
	C146.5,121.5,121.7,146.4,91.2,146.4 M91.2,44.2c-25.8,0-46.8,21-46.8,46.8c0,25.8,21,46.8,46.8,46.8c25.8,0,46.8-21,46.8-46.8
	C137.9,65.2,117,44.2,91.2,44.2"/>
</svg>
