<?xml version="1.0" encoding="utf-8"?>
<!-- Generator: Adobe Illustrator 21.1.0, SVG Export Plug-In . SVG Version: 6.00 Build 0)  -->
<svg version="1.1" id="Isolation_Mode" xmlns="http://www.w3.org/2000/svg" xmlns:xlink="http://www.w3.org/1999/xlink" x="0px"
	 y="0px" viewBox="0 0 173 198" style="enable-background:new 0 0 173 198;" xml:space="preserve">
<style type="text/css">
	.st0{fill:#C9C9C9;}
	.st1{fill:#ED145B;}
</style>
<path class="st0" d="M143.1,198H29.9C13.4,198,0,184.6,0,168.1V29.9C0,13.4,13.4,0,29.9,0h113.3C159.6,0,173,13.4,173,29.9v138.3
	C173,184.6,159.6,198,143.1,198z M142.6,9H29.4C18.1,9,9,18.1,9,29.4v138.1c0,11.3,9.1,20.4,20.4,20.4h113.1
	c11.3,0,20.4-9.1,20.4-20.4V29.4C163,18.1,153.9,9,142.6,9z"/>
<path class="st0" d="M14,62H8.2c-2.4,0-4.5-1.7-4.7-4.1C3.3,55.2,5.4,53,8,53h5.8c2.4,0,4.5,1.7,4.7,4.1C18.7,59.8,16.6,62,14,62"/>
<path class="st0" d="M162,62L14.2,62c-2.2,0-4.2-1.5-4.7-3.6C9,55.5,11.2,53,14.2,53l147.7,0c2.2,0,4.2,1.5,4.7,3.6
	c0.6,2.9-1.7,5.4-4.6,5.4"/>
<path class="st0" d="M168,62h-5.7c-2.4,0-4.5-1.7-4.7-4.1c-0.2-2.7,1.9-4.9,4.5-4.9h5.8c2.4,0,4.5,1.7,4.7,4.1
	C172.7,59.8,170.6,62,168,62"/>
<path class="st1" d="M52.6,34.9c0,4.4-3.6,8-8,8c-4.4,0-8-3.6-8-8c0-4.4,3.6-8,8-8C49,26.8,52.6,30.4,52.6,34.9"/>
<path class="st1" d="M81.5,34.9c0,4.4-3.6,8-8,8c-4.4,0-8-3.6-8-8c0-4.4,3.6-8,8-8C77.9,26.8,81.5,30.4,81.5,34.9"/>
<path class="st1" d="M107.2,34.9c0,4.4-3.6,8-8,8c-4.4,0-8-3.6-8-8c0-4.4,3.6-8,8-8C103.6,26.8,107.2,30.4,107.2,34.9"/>
<path class="st1" d="M117.6,142.6c-1.5,0-3-0.7-3.9-2.1c-1.5-2.2-0.9-5.1,1.2-6.6l24-16.4l-23.5-12c-2.3-1.2-3.2-4-2.1-6.3
	c1.2-2.3,4-3.2,6.3-2.1l24.3,12.4c2.8,1.4,4.6,4.1,4.8,7.2c0.2,3.1-1.1,6.1-3.6,7.9l-25,17C119.4,142.3,118.5,142.6,117.6,142.6"/>
<path class="st1" d="M63.5,155.2c-0.9,0-1.8-0.3-2.6-0.8L36,137.4c-2.6-1.9-4-4.9-3.7-8c0.2-3.1,2.1-5.8,4.8-7.2l24.3-12.4
	c2.3-1.2,5.2-0.3,6.3,2.1c1.2,2.3,0.3,5.2-2.1,6.3l-23.5,12l24.1,16.4c2.2,1.5,2.7,4.4,1.2,6.6C66.5,154.5,65,155.2,63.5,155.2"/>
<path class="st1" d="M81.5,164.3c-0.5,0-0.9-0.1-1.4-0.2c-2.5-0.8-3.9-3.4-3.1-5.9l20.7-66.4c0.8-2.5,3.4-3.9,5.9-3.1
	c2.5,0.8,3.9,3.4,3.1,5.9L86,160.9C85.4,163,83.5,164.3,81.5,164.3"/>
</svg>
