<?xml version="1.0" encoding="utf-8"?>
<!-- Generator: Adobe Illustrator 21.1.0, SVG Export Plug-In . SVG Version: 6.00 Build 0)  -->
<svg version="1.1" id="Isolation_Mode" xmlns="http://www.w3.org/2000/svg" xmlns:xlink="http://www.w3.org/1999/xlink" x="0px"
	 y="0px" viewBox="0 0 226 226.3" style="enable-background:new 0 0 226 226.3;" xml:space="preserve">
<style type="text/css">
	.st0{fill:#C9C9C9;}
	.st1{fill:#ED145B;}
</style>
<path class="st0" d="M226,130.9c0,18.8-15.3,34.1-34.1,34.1H34.1C15.3,165,0,149.8,0,130.9V34.1C0,15.3,15.3,0,34.1,0h157.8
	C210.7,0,226,15.3,226,34.1V130.9z M215.2,34.1c0-12.9-10.4-23.3-23.3-23.3H34.1c-12.9,0-23.3,10.4-23.3,23.3v96.9
	c0,12.9,10.4,23.3,23.3,23.3h157.8c12.9,0,23.3-10.4,23.3-23.3V34.1z"/>
<path class="st0" d="M187.2,165H38.6c-21.9,0-38.4-17.7-38.4-41.3c0-3,2.4-5.4,5.4-5.4h214.5c3,0,5.4,2.4,5.4,5.4
	C225.6,147.3,209.1,165,187.2,165 M11.4,129.1c2.1,14.8,12.9,25.1,27.3,25.1h148.5c14.3,0,25.1-10.3,27.3-25.1H11.4z"/>
<path class="st1" d="M123,108.6c-1.4,0-2.8-0.5-3.8-1.6c-2.1-2.1-2.1-5.5,0-7.6l29.9-29.9c2.1-2.1,5.5-2.1,7.6,0
	c2.1,2.1,2.1,5.5,0,7.6L126.8,107C125.7,108,124.4,108.6,123,108.6"/>
<path class="st1" d="M76.7,113.6c-1.4,0-2.8-0.5-3.8-1.6c-2.1-2.1-2.1-5.5,0-7.6l64.8-64.8c2.1-2.1,5.5-2.1,7.6,0
	c2.1,2.1,2.1,5.5,0,7.6l-64.8,64.8C79.4,113.1,78.1,113.6,76.7,113.6"/>
<path class="st0" d="M113,195.5c-3,0-5.4-2.4-5.4-5.4v-28.7c0-3,2.4-5.4,5.4-5.4c3,0,5.4,2.4,5.4,5.4v28.7
	C118.4,193.1,116,195.5,113,195.5"/>
<path class="st0" d="M146.9,226.3c-3,0-5.4-2.4-5.4-5.4c0-12.8-13.2-23.2-29.3-23.2c-16.2,0-29.3,10.4-29.3,23.2
	c0,3-2.4,5.4-5.4,5.4c-3,0-5.4-2.4-5.4-5.4c0-18.7,18-33.9,40.1-33.9c22.1,0,40.1,15.2,40.1,33.9
	C152.3,223.9,149.9,226.3,146.9,226.3"/>
</svg>
