<?xml version="1.0" encoding="utf-8"?>
<!-- Generator: Adobe Illustrator 21.1.0, SVG Export Plug-In . SVG Version: 6.00 Build 0)  -->
<svg version="1.1" id="Isolation_Mode" xmlns="http://www.w3.org/2000/svg" xmlns:xlink="http://www.w3.org/1999/xlink" x="0px"
	 y="0px" viewBox="0 0 243 204.4" style="enable-background:new 0 0 243 204.4;" xml:space="preserve">
<style type="text/css">
	.st0{fill:#C9C9C9;}
	.st1{fill:#ED145B;}
</style>
<path class="st0" d="M162,32.8c0,3.2-2.6,5.8-5.8,5.8H82.9c-3.2,0-5.8-2.6-5.8-5.8v-27c0-3.2,2.6-5.8,5.8-5.8h73.3
	c3.2,0,5.8,2.6,5.8,5.8V32.8z M88.7,27h61.7V11.6H88.7V27z"/>
<path class="st0" d="M243,167.8c0,20.2-16.4,36.6-36.6,36.6H36.6C16.4,204.4,0,188,0,167.8V63.6C0,43.4,16.4,27,36.6,27h169.7
	c20.2,0,36.6,16.4,36.6,36.6V167.8z M231.4,63.6c0-13.9-11.2-25.1-25.1-25.1H36.6c-13.8,0-25.1,11.2-25.1,25.1v104.1
	c0,13.8,11.2,25.1,25.1,25.1h169.7c13.8,0,25.1-11.2,25.1-25.1V63.6z"/>
<path class="st1" d="M119.7,168.4c-27.4,0-49.6-22.3-49.6-49.6c0-27.4,22.3-49.6,49.6-49.6c27.4,0,49.6,22.3,49.6,49.6
	C169.3,146.2,147,168.4,119.7,168.4 M119.7,80.8c-21,0-38,17.1-38,38c0,21,17.1,38,38,38c21,0,38-17.1,38-38
	C157.7,97.8,140.6,80.8,119.7,80.8"/>
<path class="st1" d="M50.7,65c0,5.9-4.8,10.6-10.6,10.6c-5.9,0-10.6-4.8-10.6-10.6c0-5.9,4.8-10.6,10.6-10.6
	C45.9,54.4,50.7,59.1,50.7,65"/>
<path class="st0" d="M210.2,202.5c-3.2,0-5.8-2.6-5.8-5.8V15.4h-19.3v15.4c0,3.2-2.6,5.8-5.8,5.8c-3.2,0-5.8-2.6-5.8-5.8V9.6
	c0-3.2,0.9-5.8,4.1-5.8h30.9c3.2,0,7.4,2.6,7.4,5.8v187.1C216,199.9,213.4,202.5,210.2,202.5"/>
</svg>
