<?xml version="1.0" encoding="utf-8"?>
<!-- Generator: Adobe Illustrator 21.1.0, SVG Export Plug-In . SVG Version: 6.00 Build 0)  -->
<svg version="1.1" id="Isolation_Mode" xmlns="http://www.w3.org/2000/svg" xmlns:xlink="http://www.w3.org/1999/xlink" x="0px"
	 y="0px" viewBox="0 0 229.5 234.5" style="enable-background:new 0 0 229.5 234.5;" xml:space="preserve">
<style type="text/css">
	.st0{fill:#C9C9C9;}
	.st1{fill:#ED145B;}
</style>
<path class="st0" d="M138.6,166.6c-0.3,0-0.6,0-0.9-0.1c-2.1-0.3-3.8-1.8-4.5-3.9L118.2,114L69.4,98.8c-2-0.6-3.5-2.4-3.9-4.5
	c-0.3-2.1,0.6-4.2,2.3-5.4l41.7-29.5l-0.7-51c0-2.1,1.2-4.1,3-5c1.9-1,4.2-0.8,5.9,0.5l40.9,30.5L207,18c2-0.7,4.2-0.2,5.7,1.3
	c1.5,1.5,2,3.7,1.3,5.7l-16.4,48.3l30.5,40.9c1.3,1.7,1.5,4,0.5,5.9c-1,1.9-2.8,3.1-5,3l-51-0.7l-29.5,41.7
	C142.1,165.8,140.4,166.6,138.6,166.6 M83.5,91.5l40.7,12.7c1.8,0.5,3.1,1.9,3.7,3.7l12.7,40.7l24.6-34.8c1.1-1.5,2.6-2.4,4.6-2.4
	l42.6,0.5L187,77.8c-1.1-1.5-1.4-3.4-0.8-5.1l13.7-40.4l-40.4,13.7c-1.7,0.6-3.7,0.3-5.1-0.8l-34.2-25.5l0.5,42.6
	c0,1.8-0.9,3.6-2.4,4.6L83.5,91.5z"/>
<path class="st0" d="M11.2,234.5c-2.9,0-5.7-1.1-7.9-3.3c-4.4-4.4-4.4-11.4,0-15.8l79.2-79.2c4.4-4.4,11.4-4.4,15.8,0
	c4.4,4.4,4.4,11.4,0,15.8l-79.2,79.2C16.9,233.4,14,234.5,11.2,234.5"/>
<path class="st1" d="M226.6,82.2c-3.9,3.9-10.2,3.9-14.1,0c-3.9-3.9-3.9-10.2,0-14.1c3.9-3.9,10.2-3.9,14.1,0
	C230.5,72,230.5,78.3,226.6,82.2"/>
<path class="st1" d="M161.4,17.1c-3.9,3.9-10.2,3.9-14.1,0c-3.9-3.9-3.9-10.2,0-14.1c3.9-3.9,10.2-3.9,14.1,0
	C165.3,6.8,165.3,13.2,161.4,17.1"/>
<path class="st1" d="M195.9,151.2c-3.9,3.9-10.2,3.9-14.1,0c-3.9-3.9-3.9-10.2,0-14.1c3.9-3.9,10.2-3.9,14.1,0
	C199.8,140.9,199.8,147.3,195.9,151.2"/>
<path class="st1" d="M96.3,51.5c-3.9,3.9-10.2,3.9-14.1,0c-3.9-3.9-3.9-10.2,0-14.1c3.9-3.9,10.2-3.9,14.1,0
	C100.2,41.3,100.2,47.6,96.3,51.5"/>
</svg>
