<?xml version="1.0" encoding="utf-8"?>
<!-- Generator: Adobe Illustrator 21.1.0, SVG Export Plug-In . SVG Version: 6.00 Build 0)  -->
<svg version="1.1" id="Isolation_Mode" xmlns="http://www.w3.org/2000/svg" xmlns:xlink="http://www.w3.org/1999/xlink" x="0px"
	 y="0px" viewBox="0 0 228.8 230.3" style="enable-background:new 0 0 228.8 230.3;" xml:space="preserve">
<style type="text/css">
	.st0{fill:#C9C9C9;}
	.st1{fill:#ED145B;}
</style>
<path class="st0" d="M8.1,208.4c-1.2,0-2.5-0.4-3.5-1.3c-2.4-1.9-2.7-5.4-0.8-7.8L62,128.6c2.7-3,6.3-4.7,10.1-4.8
	c4-0.1,7.6,1.4,10.2,4.2l49.7,51.3c0.9,0.9,1.9,0.9,2.4,0.8c0.5-0.1,1.5-0.4,2-1.5l28-56c2.3-4.6,6.9-7.5,12.1-7.6
	c5.2-0.1,9.9,2.7,12.4,7.2l35.8,65.7c1.5,2.7,0.5,6-2.2,7.5c-2.7,1.5-6,0.5-7.5-2.2l-35.8-65.7c-0.7-1.3-2-1.4-2.5-1.4
	c-0.5,0-1.7,0.2-2.4,1.5l-28,56c-2,4-5.8,6.8-10.2,7.5c-4.4,0.7-8.9-0.8-12-4l-49.7-51.3c-0.7-0.8-1.7-0.8-2-0.8
	c-0.4,0-1.3,0.1-2,0.9l-58,70.6C11.3,207.8,9.7,208.4,8.1,208.4"/>
<path class="st1" d="M171.1,178.7c-0.2,0-0.3,0-0.5,0c-5.7-0.2-10.6-3.8-12.5-9.1c-0.1-0.3-0.2-0.6-0.2-0.9l-13.7-79.3
	c-0.5-1.1-1.6-1.4-2-1.5c-0.5-0.1-1.7-0.1-2.6,1l-57.4,73.2c-4.4,5.6-12.3,7-18.3,3.1L4.6,124.8c-2.5-1.7-3.2-5.2-1.5-7.7
	s5.2-3.2,7.7-1.5L70,156.1c1.1,0.7,2.6,0.4,3.5-0.7l57.4-73.2c3.1-4,8.1-5.9,13.1-5.1c5,0.8,9.1,4.2,10.8,9c0.1,0.3,0.2,0.6,0.2,0.9
	l13.7,79.3c0.6,1.3,1.8,1.5,2.3,1.5c0.5,0,1.9-0.1,2.6-1.6l41.2-100.6c1.2-2.8,4.4-4.2,7.2-3c2.8,1.2,4.2,4.4,3,7.2l-41.3,100.7
	C181.6,175.5,176.6,178.7,171.1,178.7"/>
<path class="st0" d="M223.2,230.3H37.1C15,230.3,0,214.6,0,193.6V5.5C0,2.5,2.5,0,5.5,0s5.5,2.5,5.5,5.5v188.1
	c0,14.6,10.3,25.7,26,25.7h186.2c3.1,0,5.5,2.5,5.5,5.5C228.8,227.9,226.3,230.3,223.2,230.3"/>
</svg>
