<?xml version="1.0" encoding="utf-8"?>
<!-- Generator: Adobe Illustrator 21.1.0, SVG Export Plug-In . SVG Version: 6.00 Build 0)  -->
<svg version="1.1" id="Isolation_Mode" xmlns="http://www.w3.org/2000/svg" xmlns:xlink="http://www.w3.org/1999/xlink" x="0px"
	 y="0px" viewBox="0 0 323.8 234" style="enable-background:new 0 0 323.8 234;" xml:space="preserve">
<style type="text/css">
	.st0{fill:#C9C9C9;}
	.st1{fill:#ED145B;}
</style>
<path class="st0" d="M299.5,202.5c-4.3,0-7.7-3.5-7.7-7.7c0-71.8-58.4-130.2-130.2-130.2c-71.8,0-130.2,58.4-130.2,130.2
	c0,4.3-3.5,7.7-7.7,7.7c-4.3,0-7.7-3.5-7.7-7.7c0-80.3,65.3-145.6,145.6-145.6c80.3,0,145.6,65.3,145.6,145.6
	C307.2,199.1,303.7,202.5,299.5,202.5"/>
<path class="st0" d="M136.6,38.7H54.3c-4.3,0-7.7-3.5-7.7-7.7c0-4.3,3.5-7.7,7.7-7.7h82.2c4.3,0,7.7,3.5,7.7,7.7
	C144.3,35.2,140.8,38.7,136.6,38.7"/>
<path class="st0" d="M259.9,38.7h-77.1c-4.3,0-7.7-3.5-7.7-7.7c0-4.3,3.5-7.7,7.7-7.7h77.1c4.3,0,7.7,3.5,7.7,7.7
	C267.6,35.2,264.1,38.7,259.9,38.7"/>
<path class="st1" d="M158.1,56.9c-15.7,0-28.4-12.8-28.4-28.4S142.4,0,158.1,0c15.7,0,28.4,12.8,28.4,28.4S173.7,56.9,158.1,56.9
	 M158.1,15.4c-7.2,0-13,5.8-13,13c0,7.2,5.8,13,13,13s13-5.8,13-13C171.1,21.3,165.2,15.4,158.1,15.4"/>
<path class="st1" d="M323.8,226.2c0,4.3-3.5,7.7-7.7,7.7h-30.8c-4.3,0-7.7-3.5-7.7-7.7v-30.8c0-4.3,3.5-7.7,7.7-7.7H316
	c4.3,0,7.7,3.4,7.7,7.7V226.2z M292.9,218.5h15.4v-15.4h-15.4V218.5z"/>
<path class="st1" d="M308.3,51.5c0,4.3-3.5,7.7-7.7,7.7h-30.8c-4.3,0-7.7-3.5-7.7-7.7v-36c0-4.3,3.5-7.7,7.7-7.7h30.8
	c4.3,0,7.7,3.4,7.7,7.7V51.5z M277.5,43.8h15.4V23.3h-15.4V43.8z"/>
<path class="st1" d="M61.7,51.5c0,4.3-3.5,7.7-7.7,7.7H23.1c-4.3,0-7.7-3.5-7.7-7.7v-36c0-4.3,3.5-7.7,7.7-7.7H54
	c4.3,0,7.7,3.4,7.7,7.7V51.5z M30.8,43.8h15.4V23.3H30.8V43.8z"/>
<path class="st1" d="M46.3,226.2c0,4.3-3.5,7.7-7.7,7.7H7.7c-4.3,0-7.7-3.5-7.7-7.7v-30.8c0-4.3,3.5-7.7,7.7-7.7h30.8
	c4.3,0,7.7,3.4,7.7,7.7V226.2z M15.4,218.5h15.4v-15.4H15.4V218.5z"/>
</svg>
