<?xml version="1.0" encoding="utf-8"?>
<!-- Generator: Adobe Illustrator 21.1.0, SVG Export Plug-In . SVG Version: 6.00 Build 0)  -->
<svg version="1.1" id="Isolation_Mode" xmlns="http://www.w3.org/2000/svg" xmlns:xlink="http://www.w3.org/1999/xlink" x="0px"
	 y="0px" viewBox="0 0 189.2 280.4" style="enable-background:new 0 0 189.2 280.4;" xml:space="preserve">
<style type="text/css">
	.st0{fill:#C9C9C9;}
	.st1{fill:#ED145B;}
</style>
<path class="st0" d="M47.1,164.3c-18.7,0-34.9-9.8-40.4-24.5C1.8,126.8,0,116.3,0,101.4c0-27,22.9-89.8,25.5-96.8v0c0,0,0,0,0,0
	c0,0,0,0,0,0c0-0.1,0-0.1,0-0.1h0c0-0.1,0.1-0.2,0.1-0.3c1.4-3.3,5.3-4.9,8.6-3.6c3.4,1.3,5.1,5.1,3.8,8.5c0,0,0,0,0,0.1
	C37.9,9.7,33.9,24.8,54,62.7c6.4,11.9,14.5,25,24.2,38.8c3.9,5.6,11.2,18.7,11.2,28.1C89.5,148.7,70.5,164.3,47.1,164.3 M28.4,37.1
	c-6.9,21.4-15.1,49.6-15.1,64.3c0,13.4,1.5,22.2,5.9,33.8c3.5,9.3,15,15.8,27.9,15.8c16,0,29-9.6,29-21.4c0-4.2-4-13.5-8.8-20.4
	c-10-14.2-18.5-27.7-25.1-40.1C35.5,56.3,31.2,45.7,28.4,37.1"/>
<path class="st1" d="M54.6,210.2c-4-5.7-7-10.6-9.2-14.8c-8.6-16.2-6.1-22.1-6.1-22.1s-9.4,25.4-9.4,35.5c0,5.4,0.6,8.9,2.4,13.5
	c1.6,4.4,6.7,7.5,12.8,7.5c7.4,0,13.3-4.7,13.3-10.5C58.3,216.8,56.3,212.6,54.6,210.2"/>
<path class="st0" d="M163.3,280.4L163.3,280.4c-1.8,0-3.6-0.2-5.3-0.6c-59.2-12.6-84-54.5-93.4-78.3c-4-10.1-1.7-21.6,6-29.3
	c5.1-5.1,12-8,19.2-8c10,0,19.1,5.4,23.9,14.2c9.2,17,26.9,39.7,59.1,52c8.1,3.1,14,10,15.8,18.5c1.9,8.7-0.8,17.6-7,23.8
	C176.8,277.6,170.1,280.4,163.3,280.4 M89.8,177.6c-3.7,0-7.1,1.4-9.8,4.1c-3.9,3.9-5.1,9.8-3.1,14.9c8.5,21.3,30.7,58.8,83.8,70.1
	c4,0.9,8.4-0.5,11.4-3.4c3-3,4.3-7.3,3.4-11.6c-0.9-4.1-3.6-7.3-7.5-8.8c-36-13.7-55.8-39.2-66.1-58.1
	C99.5,180.3,94.9,177.6,89.8,177.6"/>
</svg>
