<?xml version="1.0" encoding="utf-8"?>
<!-- Generator: Adobe Illustrator 21.1.0, SVG Export Plug-In . SVG Version: 6.00 Build 0)  -->
<svg version="1.1" id="Isolation_Mode" xmlns="http://www.w3.org/2000/svg" xmlns:xlink="http://www.w3.org/1999/xlink" x="0px"
	 y="0px" viewBox="0 0 183.5 268.8" style="enable-background:new 0 0 183.5 268.8;" xml:space="preserve">
<style type="text/css">
	.st0{fill:#C9C9C9;}
	.st1{fill:#ED145B;}
</style>
<path class="st0" d="M183.5,228.3c0,22.4-18.1,40.5-40.5,40.5H40.5C18.1,268.8,0,250.7,0,228.3V40.5C0,18.1,18.1,0,40.5,0h102.4
	c22.4,0,40.5,18.1,40.5,40.5V228.3z M170.7,40.5c0-15.3-12.4-27.7-27.7-27.7H40.5c-15.3,0-27.7,12.4-27.7,27.7v187.7
	c0,15.3,12.4,27.7,27.7,27.7h102.4c15.3,0,27.7-12.4,27.7-27.7V40.5z"/>
<path class="st0" d="M183.5,224c0,3.5-2.9,6.4-6.4,6.4H6.4c-3.5,0-6.4-2.9-6.4-6.4V40.5c0-3.5,2.9-6.4,6.4-6.4h170.7
	c3.5,0,6.4,2.9,6.4,6.4V224z M12.8,217.6h157.9V46.9H12.8V217.6z"/>
<path class="st1" d="M102.2,24.4c0,4.7-3.8,8.5-8.5,8.5c-4.7,0-8.5-3.8-8.5-8.5s3.8-8.5,8.5-8.5C98.3,15.8,102.2,19.7,102.2,24.4"/>
<path class="st1" d="M104.8,247.5H83.5c-3.5,0-6.4-2.9-6.4-6.4c0-3.5,2.9-6.4,6.4-6.4h21.3c3.5,0,6.4,2.9,6.4,6.4
	C111.2,244.6,108.4,247.5,104.8,247.5"/>
<path class="st1" d="M104.5,166.4L104.5,166.4c-3.5,0-6.4-3.8-6.4-7.3c0-32.1-19.4-35.4-21.7-35.7c-3.5-0.3-6.1-3.7-5.8-7.2
	c0.3-3.5,3.3-6.3,6.8-5.9c0.3,0,33.5,4,33.4,48.8C110.9,162.7,108.1,166.4,104.5,166.4"/>
<path class="st1" d="M133.8,162.1L133.8,162.1c-3.5,0-6.4-3.1-6.4-6.6C127.5,98.7,89.5,95,89.2,95c-3.5-0.3-6.2-3.4-5.9-6.9
	c0.3-3.5,3.4-6.3,6.9-5.9c0.5,0,50.2,4.9,50.1,73.4C140.2,159.1,137.3,162.1,133.8,162.1"/>
</svg>
