<?xml version="1.0" encoding="utf-8"?>
<!-- Generator: Adobe Illustrator 21.1.0, SVG Export Plug-In . SVG Version: 6.00 Build 0)  -->
<svg version="1.1" id="Isolation_Mode" xmlns="http://www.w3.org/2000/svg" xmlns:xlink="http://www.w3.org/1999/xlink" x="0px"
	 y="0px" viewBox="0 0 252.2 233" style="enable-background:new 0 0 252.2 233;" xml:space="preserve">
<style type="text/css">
	.st0{fill:#C9C9C9;}
	.st1{fill:#ED145B;}
</style>
<path class="st0" d="M207,164.3H60.7c-2.8,0-5.2-1.9-5.8-4.6L35.2,79.6c-0.4-1.8,0-3.7,1.1-5.1c1.1-1.5,2.9-2.3,4.7-2.3h45.1
	c3.3,0,6,2.7,6,6c0,3.3-2.7,6-6,6H48.7l16.7,68.1h137.8l32.7-68.1h-41.5c-3.3,0-6-2.7-6-6c0-3.3,2.7-6,6-6h51.1c2.1,0,4,1.1,5.1,2.8
	c1.1,1.8,1.2,3.9,0.3,5.8l-38.5,80.2C211.4,163,209.3,164.3,207,164.3"/>
<path class="st0" d="M244.5,208.4h-14c-3.3,0-6-2.7-6-6c0-3.3,2.7-6,6-6h9.7v-32.1H67.8l5.6,32.1h8.7c3.3,0,6,2.7,6,6
	c0,3.3-2.7,6-6,6H68.4c-2.9,0-5.4-2.1-5.9-5l-7.7-44.1c-0.3-1.7,0.2-3.5,1.3-4.9c1.1-1.4,2.8-2.1,4.6-2.1h183.8c3.3,0,7.7,2.7,7.7,6
	v44.1C252.2,205.7,247.8,208.4,244.5,208.4"/>
<path class="st0" d="M174.3,208.4h-40.1c-3.3,0-6-2.7-6-6c0-3.3,2.7-6,6-6h40.1c3.3,0,6,2.7,6,6
	C180.3,205.7,177.6,208.4,174.3,208.4"/>
<path class="st0" d="M201.9,233c-16,0-29.1-13.1-29.1-29.1s13.1-29.1,29.1-29.1c16,0,29.1,13.1,29.1,29.1S218,233,201.9,233
	 M201.9,186.8c-9.4,0-17.1,7.7-17.1,17.1s7.7,17.1,17.1,17.1c9.4,0,17.1-7.7,17.1-17.1S211.4,186.8,201.9,186.8"/>
<path class="st0" d="M109.4,233c-16,0-29.1-13.1-29.1-29.1s13.1-29.1,29.1-29.1s29.1,13.1,29.1,29.1S125.4,233,109.4,233
	 M109.4,186.8c-9.4,0-17.1,7.7-17.1,17.1S100,221,109.4,221c9.4,0,17.1-7.7,17.1-17.1S118.8,186.8,109.4,186.8"/>
<path class="st0" d="M68.4,206.1c-2.7,0-5.2-1.8-5.8-4.6L24.1,43.2c-0.1-0.5-0.2-0.9-0.2-1.4c0-2.7-2.7-4.9-5.9-4.9
	c-3.3,0-6,2.8-6,6.3c0,2.2,1.1,4.2,2.8,5.4c2.8,1.8,3.5,5.6,1.7,8.3c-1.8,2.8-5.6,3.5-8.3,1.7C3.1,55.1,0,49.3,0,43.1
	C0,33,8.1,24.8,18,24.8c9.6,0,17.5,7.2,17.9,16.1l38.3,157.7c0.8,3.2-1.2,6.5-4.4,7.3C69.3,206,68.9,206.1,68.4,206.1"/>
<path class="st1" d="M143.1,125.8L143.1,125.8c-5.6,0-10.9-2.8-14-7.6l-26.8-41.8c-3.5-5.3-3.6-12.9-0.2-19.3
	c3-5.6,8.1-8.9,13.6-8.9h8.2V10.9c0-5.9,4.6-10.9,9.8-10.9h24.1c1.4,0,10.3,0.5,10.3,10.9v37.2h2.8c5.7,0,10.8,3.4,13.8,9.1
	c3.3,6.4,3,13.9-0.7,19.2l-28.2,42.8C152.7,123.4,148.2,125.8,143.1,125.8 M115.7,60.1c-1.2,0-2.3,1.3-3,2.6
	c-1.3,2.4-1.5,5.5-0.4,7.1l26.8,41.8c1,1.6,2.7,2.1,4,2.1c1.1,0,2-0.4,2.6-1.3L174,69.6c1.2-1.7,1.1-4.6-0.1-6.9
	c-0.7-1.3-1.8-2.6-3.1-2.6H156V12h-21.7c0,0,1.7,0,1.7,0v48.1H115.7z"/>
</svg>
